<?xml version="1.0" encoding="UTF-8"?>
<svg id="Layer_2" data-name="Layer 2" xmlns="http://www.w3.org/2000/svg" viewBox="0 0 373.72 417.66">
  <defs>
    <style>
      .cls-1 {
        fill: #4b63ae;
      }
    </style>
  </defs>
  <path class="cls-1" d="m359.06,285.89c8.38,4.47,12.56,12.3,12.56,23.45,0,8.19-2.45,15.45-7.33,21.78-4.89,6.33-10.83,9.48-17.8,9.48-4.88,0-11.5-1.86-19.88-5.58l-106.78-64.78,1.05,121.73c0,7.44-2.97,13.58-8.91,18.42s-13.08,7.25-21.45,7.25-15.19-2.22-20.42-6.69-7.84-10.8-7.84-18.98c0-44.67-.36-84.88-1.05-120.61l-98.41,56.95c-8.38,3.72-14.31,5.58-17.8,5.58-6.98,0-13.09-2.97-18.33-8.92s-7.84-13.41-7.84-22.34c0-9.67,3.83-16.38,11.52-20.11l117.25-67L13.61,141.83c-9.08-5.2-13.61-13.02-13.61-23.45,0-6.69,2.61-13.2,7.84-19.53s11-9.5,17.28-9.5,12.56,2.23,18.84,6.7l116.2,67c0-44.66-.19-76.86-.53-96.59-.34-19.72-.52-31.83-.52-36.3,0-20.09,9.77-30.16,29.31-30.16,10.47,0,17.97,2.42,22.5,7.27s6.81,12.47,6.81,22.89l1.05,135.12,103.64-63.66c13.25-5.95,21.97-8.94,26.16-8.94,6.97,0,12.91,3.36,17.8,10.06,4.88,6.7,7.33,13.41,7.33,20.09,0,9.69-6.28,17.88-18.84,24.56l-124.56,68.13,128.75,70.36Z"/>
</svg>